<svg width="209" height="48" viewBox="0 0 209 48" fill="none" xmlns="http://www.w3.org/2000/svg">
<g id="Logo">
<g id="druidity">
<path d="M22.7526 0V14.6195C20.8565 11.8254 17.3139 10.1289 13.3222 10.1289C5.88773 10.1289 0 15.9667 0 23.9501C0 31.9335 5.83784 37.7713 13.3721 37.7713C17.3638 37.7713 20.9064 36.1746 22.8524 33.3306V37.1726H27.0437V0H22.7526ZM13.6216 33.6299C8.38254 33.6299 4.54054 29.5385 4.54054 23.9501C4.54054 18.4116 8.38254 14.2703 13.6216 14.2703C18.8607 14.2703 22.7526 18.4116 22.7526 23.9501C22.7526 29.5385 18.8607 33.6299 13.6216 33.6299Z" fill="white"/>
<path d="M44.8842 10.4283C41.6909 10.4283 39.1462 11.5759 37.7491 14.0208V10.7277H33.6077V37.1726H37.8988V21.4054C37.8988 17.0146 40.4435 14.5198 44.2356 14.5198H47.0298V10.4283H44.8842Z" fill="white"/>
<path d="M68.5513 10.7277V26.7443C68.5513 30.8857 65.9068 33.6299 62.0149 33.6299C58.0233 33.6299 55.4287 30.9356 55.4287 26.7443V10.7277H51.1376V27.5426C51.1376 33.1809 55.3289 37.7713 61.0669 37.7713C64.2603 37.7713 67.1043 36.4241 68.6511 34.1289V37.1726H72.8424V10.7277H68.5513Z" fill="white"/>
<path d="M79.0116 5.83784H83.3026V0H79.0116V5.83784ZM79.0116 37.1726H83.3026V10.7277H79.0116V37.1726Z" fill="white"/>
<path d="M110.753 0V14.6195C108.857 11.8254 105.314 10.1289 101.322 10.1289C93.888 10.1289 88.0003 15.9667 88.0003 23.9501C88.0003 31.9335 93.8381 37.7713 101.372 37.7713C105.364 37.7713 108.907 36.1746 110.853 33.3306V37.1726H115.044V0H110.753ZM101.622 33.6299C96.3828 33.6299 92.5408 29.5385 92.5408 23.9501C92.5408 18.4116 96.3828 14.2703 101.622 14.2703C106.861 14.2703 110.753 18.4116 110.753 23.9501C110.753 29.5385 106.861 33.6299 101.622 33.6299Z" fill="white"/>
<path d="M121.209 5.83784H125.5V0H121.209V5.83784ZM121.209 37.1726H125.5V10.7277H121.209V37.1726Z" fill="white"/>
<path d="M142.771 37.4719C143.52 37.4719 144.568 37.422 145.416 37.2225V33.7297C144.867 33.8295 144.118 33.8794 143.57 33.8794C139.029 33.8794 138.73 30.7859 138.73 29.0894V14.8191H145.116V10.7277H138.73V2.14553H134.439V6.83576C134.439 9.18087 132.942 10.7277 130.647 10.7277H129.299V14.8191H134.439V29.0894C134.439 34.4283 137.432 37.4719 142.771 37.4719Z" fill="white"/>
<path d="M169.164 10.6778L161.031 31.1351L152.898 10.6778H148.008L158.586 36.9231L157.438 39.6674C156.64 41.5135 155.642 43.9085 151.75 43.9085C150.702 43.9085 149.505 43.7588 149.006 43.6091V47.4511C150.004 47.8503 151.301 48 152.499 48C158.686 48 160.582 43.8087 161.929 40.4657L174.154 10.6778H169.164Z" fill="white"/>
</g>
<circle id="Ellipse 1" cx="12.9021" cy="23.8113" r="6.44652" fill="#C2EC5B"/>
<circle id="Ellipse 2" cx="101.542" cy="23.8113" r="6.44652" fill="#C2EC5B"/>
<path id="Vector 1" d="M166.812 10.9183H155.531L161.172 25.4229L166.812 10.9183Z" fill="#C2EC5B"/>
<path id="Vector 2" d="M66.5761 10.8694H57.7854V27.2788C57.7854 30.5606 60.3133 31.3811 62.1808 31.3811C64.0482 31.3811 66.5761 30.5606 66.5761 27.2788V10.8694Z" fill="#C2EC5B"/>
<rect id="Rectangle 40" x="180.855" y="5.00903" width="27.3489" height="18.5582" rx="5.79942" fill="#C2EC5B"/>
<g id="pro">
<path d="M185.589 17.7097H186.942V15.3521H188.261C189.588 15.3521 190.566 14.6187 190.566 13.2827C190.566 11.9205 189.605 11.2045 188.261 11.2045H185.589V17.7097ZM186.942 14.1733V12.3833H188.269C188.837 12.3833 189.212 12.7413 189.212 13.2827C189.212 13.8153 188.837 14.1733 188.269 14.1733H186.942Z" fill="#1E2134"/>
<path d="M191.31 17.7097H192.664V15.3521H193.808L195.126 17.7097H196.645L195.161 15.1164C195.851 14.802 196.287 14.1733 196.287 13.2827C196.287 11.9205 195.327 11.2045 193.982 11.2045H191.31V17.7097ZM192.664 14.1733V12.3833H193.991C194.559 12.3833 194.934 12.7413 194.934 13.2827C194.934 13.8153 194.559 14.1733 193.991 14.1733H192.664Z" fill="#1E2134"/>
<path d="M200.45 17.8145C202.415 17.8145 203.9 16.365 203.9 14.4528C203.9 12.5405 202.424 11.0997 200.45 11.0997C198.477 11.0997 197.001 12.5405 197.001 14.4528C197.001 16.365 198.486 17.8145 200.45 17.8145ZM200.45 16.592C199.263 16.592 198.355 15.7101 198.355 14.4528C198.355 13.1954 199.263 12.3222 200.45 12.3222C201.638 12.3222 202.546 13.1954 202.546 14.4528C202.546 15.7101 201.638 16.592 200.45 16.592Z" fill="#1E2134"/>
</g>
</g>
</svg>
